<svg version="1.1" id="Layer_1" xmlns="http://www.w3.org/2000/svg" xmlns:xlink="http://www.w3.org/1999/xlink" x="0px" y="0px"
	 width="100%" viewBox="0 0 299 168" enable-background="new 0 0 299 168" xml:space="preserve">
<path fill="#FEFEFE" opacity="1.000000" stroke="none" 
	d="
M179.000000,169.000000 
	C119.333344,169.000000 60.166679,169.000000 1.000016,169.000000 
	C1.000011,113.000015 1.000011,57.000027 1.000005,1.000031 
	C100.666634,1.000021 200.333267,1.000021 299.999939,1.000010 
	C299.999939,56.999969 299.999939,112.999939 299.999969,168.999954 
	C259.833344,169.000000 219.666672,169.000000 179.000000,169.000000 
M160.033279,135.636978 
	C157.931259,131.738571 155.829239,127.840164 153.799301,124.075424 
	C155.300629,122.351295 156.531128,120.938210 158.157867,119.070076 
	C150.938034,119.070076 144.478333,118.951759 138.029999,119.169861 
	C136.739319,119.213516 134.740936,120.263550 134.352859,121.320839 
	C132.539810,126.260239 131.176498,131.364716 129.572403,136.675110 
	C133.333618,136.675110 137.261993,137.771774 139.751114,136.349533 
	C141.991165,135.069611 142.652603,131.026932 144.186737,127.835938 
	C145.521484,130.126587 146.459122,132.091080 147.735153,133.803406 
	C148.616806,134.986496 149.896271,136.548965 151.120193,136.666229 
	C154.030334,136.945053 157.013062,136.466354 160.854523,136.594803 
	C167.614471,136.863464 174.892883,138.836929 178.897324,130.611786 
	C180.667969,126.974861 183.660767,125.861092 187.768875,127.302841 
	C188.631775,130.275528 189.537750,133.396606 190.444168,136.519226 
	C194.775665,136.519226 198.887253,136.519226 203.858856,136.768967 
	C207.241470,135.993301 211.816315,139.232803 213.529770,132.983704 
	C215.606415,125.410042 215.988785,125.514885 224.615341,126.992920 
	C223.826767,130.147568 223.041931,133.287231 222.225311,136.554062 
	C225.706223,136.554062 228.790741,136.554062 231.824631,136.554062 
	C233.885666,130.575638 235.862396,124.841728 237.851639,119.071541 
	C229.076126,119.071541 219.923294,118.985359 210.776001,119.171211 
	C209.510300,119.196930 207.533264,120.300705 207.149292,121.362419 
	C205.521149,125.864449 204.369766,130.538910 202.223068,135.172562 
	C200.667999,129.835022 199.112930,124.497482 197.530060,119.064499 
	C191.399551,119.064499 185.569656,119.264595 179.762238,118.989632 
	C176.264725,118.824036 173.999420,119.863647 171.823685,122.724442 
	C168.171997,127.525940 163.917938,131.869308 160.033279,135.636978 
M176.177979,52.910976 
	C165.884109,48.522415 156.883286,51.035339 151.646301,60.203278 
	C156.478943,60.203278 161.019730,60.203278 165.491287,60.203278 
	C166.157761,66.827072 164.314590,68.799683 158.349838,69.043182 
	C155.188416,69.172241 152.050171,69.868980 148.001831,70.400345 
	C139.190811,69.895088 130.383789,69.299034 121.567680,68.908844 
	C111.781136,68.475700 101.919090,68.814491 92.218536,67.698875 
	C85.706779,66.949982 79.708450,67.132492 73.669701,69.557030 
	C70.614052,70.783859 67.353409,71.493561 64.274414,72.669922 
	C53.606659,76.745613 42.611397,80.201561 32.478554,85.346428 
	C26.843151,88.207756 22.073761,93.472099 18.020819,98.538757 
	C14.591283,102.826088 15.774306,104.826477 20.872864,107.507698 
	C19.118721,102.314117 20.204950,99.208008 26.135427,94.136948 
	C35.605705,86.039047 47.002033,81.970490 58.871891,79.010963 
	C59.521568,78.848984 60.304321,79.220741 61.158146,79.366814 
	C60.494671,81.484756 59.959789,83.192207 59.559341,84.470520 
	C65.272644,81.116623 70.613380,77.078049 76.612961,74.705582 
	C83.014435,72.174187 89.845596,73.473557 95.889519,76.886299 
	C108.859070,84.209648 112.424950,95.844215 110.408539,109.985687 
	C114.559425,104.112816 115.721420,97.484215 113.892242,91.066231 
	C112.149460,84.951370 108.692055,79.325188 105.614304,72.675819 
	C123.357346,74.249893 141.270584,75.564720 159.107880,77.558945 
	C166.068100,78.337105 171.440247,76.462372 175.158493,70.944954 
	C177.706406,67.164185 180.125092,62.834652 180.930466,58.443920 
	C182.316406,50.887905 182.399109,43.092850 183.050247,35.135647 
	C188.792938,33.783089 193.215118,36.608601 196.857346,41.170486 
	C205.934326,52.539402 216.934921,61.495960 230.019119,67.884842 
	C230.789444,68.260979 231.453018,68.855774 232.276276,69.424850 
	C220.708145,77.018799 215.139664,85.479813 216.999802,94.402390 
	C223.438660,80.007172 233.196518,71.944977 248.556946,74.689766 
	C263.630798,77.383347 270.046722,88.328148 272.493073,102.489014 
	C274.834106,93.925163 272.748138,86.346275 268.820740,78.569740 
	C272.474213,79.373726 276.396576,80.012299 278.751312,82.279213 
	C283.253723,86.613808 281.745056,92.480522 280.910522,98.043343 
	C284.804901,93.116348 285.836029,87.720818 284.367188,81.596870 
	C282.927795,75.595718 278.107086,74.323677 273.244568,73.022499 
	C271.653168,72.596649 269.910034,72.755470 268.301727,72.372200 
	C261.066620,70.648018 253.842300,68.874504 246.639221,67.021202 
	C241.412354,65.676353 235.918915,64.843529 231.080399,62.617317 
	C219.303497,57.198704 209.250900,49.267384 200.978165,39.235870 
	C196.215927,33.461201 190.494141,30.057295 182.789001,31.016457 
	C179.286469,31.452463 177.289246,32.760456 177.624924,37.137280 
	C178.026520,42.373581 177.225189,47.702145 176.177979,52.910976 
M107.835480,124.680733 
	C105.635323,122.117142 104.704262,117.514679 99.003998,119.745689 
	C99.003998,124.371414 99.003998,129.189621 99.003998,134.007812 
	C95.559753,129.896530 93.033653,125.641922 90.684853,121.291580 
	C89.101082,118.358215 85.988510,117.868629 84.567474,119.795189 
	C80.829742,124.862617 77.974487,130.580978 74.277138,136.875183 
	C83.945557,137.443924 81.833321,127.493393 87.317757,125.499504 
	C95.801811,138.160980 95.801811,138.160980 103.903519,136.167145 
	C103.903519,133.538223 103.903519,130.799362 103.903519,126.536598 
	C106.253212,130.059235 107.872925,132.281113 109.272003,134.634171 
	C111.289001,138.026443 113.143799,137.773041 115.183838,134.685944 
	C116.516289,132.669601 117.978287,130.738876 120.037994,127.850159 
	C120.037994,130.643585 119.701111,132.370804 120.145905,133.865387 
	C120.493988,135.035004 121.810951,135.916290 122.697426,136.925674 
	C123.462166,135.911743 124.799545,134.944321 124.886353,133.875336 
	C125.168709,130.398438 125.139099,126.875458 124.924828,123.388947 
	C124.836060,121.944672 123.975296,120.547836 123.465630,119.129417 
	C121.987915,119.904076 120.084671,120.332184 119.116119,121.521492 
	C116.680641,124.512100 114.667252,127.846451 112.103561,131.601059 
	C110.424080,128.945206 109.284927,127.143799 107.835480,124.680733 
M182.367752,85.137527 
	C178.559479,84.809525 174.730103,84.637497 170.946777,84.125282 
	C157.768021,82.340988 144.803329,82.912704 132.026566,86.913414 
	C123.304840,89.644394 122.687744,90.633774 125.984200,100.586082 
	C125.511894,94.331947 128.998276,92.501564 133.058365,91.433105 
	C142.743103,88.884460 152.498871,87.495255 162.622040,88.393921 
	C173.702377,89.377563 184.847672,89.641945 195.967773,90.151543 
	C197.554062,90.224243 199.157959,89.912758 200.753708,89.779076 
	C200.751648,89.216431 200.749588,88.653786 200.747528,88.091148 
	C194.919159,87.146507 189.090790,86.201874 182.367752,85.137527 
M73.568474,126.774422 
	C69.569473,126.312157 65.570480,125.849884 61.571480,125.387619 
	C61.606651,124.919075 61.641823,124.450531 61.676994,123.981987 
	C64.445992,123.981987 67.263634,124.287354 69.964104,123.857140 
	C71.379616,123.631638 72.589615,122.116142 73.892426,121.183212 
	C72.673820,120.456413 71.498734,119.209000 70.228256,119.102798 
	C66.755028,118.812477 63.236286,119.121826 59.745789,118.965492 
	C56.957081,118.840576 55.871170,119.877190 55.967335,122.712234 
	C56.569305,140.459503 52.579033,136.520447 70.146683,136.915634 
	C71.365631,136.943039 72.615326,135.603882 73.850723,134.900208 
	C72.547623,134.267502 71.290215,133.241119 69.931976,133.083466 
	C67.037491,132.747513 64.090668,132.862411 61.165298,132.792542 
	C61.174068,131.865082 61.182842,130.937637 61.191612,130.010178 
	C63.955429,130.010178 66.758362,130.286545 69.467903,129.903061 
	C71.010994,129.684662 72.401558,128.388580 73.568474,126.774422 
M206.112259,116.172287 
	C217.301224,116.172287 228.490204,116.172287 239.794342,116.172287 
	C238.978210,110.883858 236.478561,108.895889 231.777954,109.167534 
	C226.975021,109.445114 222.095139,109.657059 217.336990,109.118988 
	C211.564560,108.466217 207.824051,110.512138 206.112259,116.172287 
M254.523590,116.282211 
	C258.008942,116.282204 261.494324,116.282028 264.979675,116.282227 
	C271.844910,116.282616 271.844910,116.282700 272.562042,109.229172 
	C266.076477,109.229172 259.571930,109.668602 253.157257,109.097961 
	C247.446579,108.589958 244.221237,110.907692 242.047440,116.282066 
	C245.988861,116.282066 249.764572,116.282066 254.523590,116.282211 
M260.742279,119.095940 
	C257.805969,119.095940 254.869675,119.095940 251.796844,119.095940 
	C249.932770,125.117218 248.194778,130.731216 246.309784,136.820068 
	C249.118759,136.820068 251.303116,137.088531 253.375885,136.723465 
	C254.705643,136.489258 256.611053,135.582886 256.983795,134.527588 
	C258.740234,129.555176 260.056366,124.427223 260.742279,119.095940 
M38.739773,123.993050 
	C41.960953,123.543343 43.372181,124.842941 43.026089,128.166122 
	C42.837704,129.974991 42.683537,131.897980 43.108570,133.623001 
	C43.414227,134.863525 44.703156,135.861755 45.553463,136.968079 
	C46.365211,135.819946 47.740337,134.734924 47.877445,133.511200 
	C48.216518,130.484940 47.988708,127.395142 47.988708,124.382256 
	C49.577084,124.178596 50.340523,124.281815 50.863239,123.974968 
	C52.278812,123.143982 53.592155,122.138847 54.946049,121.202797 
	C53.558861,120.468407 52.210468,119.206032 50.777058,119.100700 
	C46.808231,118.809067 42.797722,118.874893 38.817348,119.073387 
	C37.563488,119.135925 36.352859,120.065384 35.122440,120.598068 
	C36.041290,121.719696 36.960140,122.841324 38.739773,123.993050 
M190.409103,116.230026 
	C192.526276,116.230026 194.643448,116.230026 197.562607,116.230026 
	C196.349655,113.415581 196.011841,110.237305 194.385071,109.302788 
	C189.359665,106.415863 181.353867,109.930183 177.985535,116.228210 
	C181.971970,116.228210 185.707443,116.228210 190.409103,116.230026 
M160.805664,116.196251 
	C163.246582,114.060638 165.687515,111.925026 168.896255,109.117638 
	C155.508041,108.787697 155.508041,108.787697 149.898834,116.247955 
	C153.493774,116.247955 156.720291,116.247955 160.805664,116.196251 
M139.986618,116.271645 
	C148.431427,116.271820 148.431427,116.271820 148.594131,109.174179 
	C145.146988,109.174179 141.703873,109.174179 138.171036,109.174179 
	C137.442429,111.490654 136.758041,113.666519 135.993103,116.098465 
	C137.273605,116.167236 138.247482,116.219543 139.986618,116.271645 
z"/>
<path fill="#D70D0D" opacity="1.000000" stroke="none" 
	d="
M176.944855,52.990746 
	C177.225189,47.702145 178.026520,42.373581 177.624924,37.137280 
	C177.289246,32.760456 179.286469,31.452463 182.789001,31.016457 
	C190.494141,30.057295 196.215927,33.461201 200.978165,39.235870 
	C209.250900,49.267384 219.303497,57.198704 231.080399,62.617317 
	C235.918915,64.843529 241.412354,65.676353 246.639221,67.021202 
	C253.842300,68.874504 261.066620,70.648018 268.301727,72.372200 
	C269.910034,72.755470 271.653168,72.596649 273.244568,73.022499 
	C278.107086,74.323677 282.927795,75.595718 284.367188,81.596870 
	C285.836029,87.720818 284.804901,93.116348 280.910522,98.043343 
	C281.745056,92.480522 283.253723,86.613808 278.751312,82.279213 
	C276.396576,80.012299 272.474213,79.373726 268.820740,78.569740 
	C272.748138,86.346275 274.834106,93.925163 272.493073,102.489014 
	C270.046722,88.328148 263.630798,77.383347 248.556946,74.689766 
	C233.196518,71.944977 223.438660,80.007172 216.999802,94.402390 
	C215.139664,85.479813 220.708145,77.018799 232.276276,69.424850 
	C231.453018,68.855774 230.789444,68.260979 230.019119,67.884842 
	C216.934921,61.495960 205.934326,52.539402 196.857346,41.170486 
	C193.215118,36.608601 188.792938,33.783089 183.050247,35.135647 
	C182.399109,43.092850 182.316406,50.887905 180.930466,58.443920 
	C180.125092,62.834652 177.706406,67.164185 175.158493,70.944954 
	C171.440247,76.462372 166.068100,78.337105 159.107880,77.558945 
	C141.270584,75.564720 123.357346,74.249893 105.614304,72.675819 
	C108.692055,79.325188 112.149460,84.951370 113.892242,91.066231 
	C115.721420,97.484215 114.559425,104.112816 110.408539,109.985687 
	C112.424950,95.844215 108.859070,84.209648 95.889519,76.886299 
	C89.845596,73.473557 83.014435,72.174187 76.612961,74.705582 
	C70.613380,77.078049 65.272644,81.116623 59.559341,84.470520 
	C59.959789,83.192207 60.494671,81.484756 61.158146,79.366814 
	C60.304321,79.220741 59.521568,78.848984 58.871891,79.010963 
	C47.002033,81.970490 35.605705,86.039047 26.135427,94.136948 
	C20.204950,99.208008 19.118721,102.314117 20.872864,107.507698 
	C15.774306,104.826477 14.591283,102.826088 18.020819,98.538757 
	C22.073761,93.472099 26.843151,88.207756 32.478554,85.346428 
	C42.611397,80.201561 53.606659,76.745613 64.274414,72.669922 
	C67.353409,71.493561 70.614052,70.783859 73.669701,69.557030 
	C79.708450,67.132492 85.706779,66.949982 92.218536,67.698875 
	C101.919090,68.814491 111.781136,68.475700 121.567680,68.908844 
	C130.383789,69.299034 139.190811,69.895088 148.822296,70.545090 
	C152.632874,70.889153 155.631256,71.005638 158.611389,71.304375 
	C165.644257,72.009361 170.562134,68.804550 173.599731,62.794117 
	C175.142090,59.742275 175.856277,56.271904 176.944855,52.990746 
z"/>
<path fill="#D60D0D" opacity="1.000000" stroke="none" 
	d="
M202.998840,136.519226 
	C198.887253,136.519226 194.775665,136.519226 190.444168,136.519226 
	C189.537750,133.396606 188.631775,130.275528 187.768875,127.302841 
	C183.660767,125.861092 180.667969,126.974861 178.897324,130.611786 
	C174.892883,138.836929 167.614471,136.863464 160.403778,136.474304 
	C159.953049,136.353806 159.917328,136.405426 159.917328,136.405426 
	C163.917938,131.869308 168.171997,127.525940 171.823685,122.724442 
	C173.999420,119.863647 176.264725,118.824036 179.762238,118.989632 
	C185.569656,119.264595 191.399551,119.064499 197.530060,119.064499 
	C199.112930,124.497482 200.667999,129.835022 202.627472,135.389618 
	C203.025146,135.911011 203.014130,136.215195 202.998840,136.519226 
z"/>
<path fill="#EBEBEB" opacity="1.000000" stroke="none" 
	d="
M107.990631,125.011566 
	C109.284927,127.143799 110.424080,128.945206 112.103561,131.601059 
	C114.667252,127.846451 116.680641,124.512100 119.116119,121.521492 
	C120.084671,120.332184 121.987915,119.904076 123.465622,119.129425 
	C123.975296,120.547836 124.836060,121.944672 124.924828,123.388947 
	C125.139099,126.875458 125.168709,130.398438 124.886353,133.875336 
	C124.799545,134.944321 123.462166,135.911743 122.697426,136.925674 
	C121.810951,135.916290 120.493988,135.035004 120.145905,133.865387 
	C119.701111,132.370804 120.037994,130.643585 120.037994,127.850159 
	C117.978287,130.738876 116.516289,132.669601 115.183838,134.685944 
	C113.143799,137.773041 111.289001,138.026443 109.272003,134.634171 
	C107.872925,132.281113 106.253212,130.059235 103.903519,126.536598 
	C103.903519,130.799362 103.903519,133.538223 103.903519,136.167145 
	C95.801811,138.160980 95.801811,138.160980 87.317757,125.499504 
	C81.833321,127.493393 83.945557,137.443924 74.277138,136.875183 
	C77.974487,130.580978 80.829742,124.862617 84.567474,119.795189 
	C85.988510,117.868629 89.101082,118.358215 90.684853,121.291580 
	C93.033653,125.641922 95.559753,129.896530 99.003998,134.007812 
	C99.003998,129.189621 99.003998,124.371414 99.003998,119.745689 
	C104.704262,117.514679 105.635323,122.117142 107.990631,125.011566 
z"/>
<path fill="#D60B0B" opacity="1.000000" stroke="none" 
	d="
M203.428848,136.644104 
	C203.014130,136.215195 203.025146,135.911011 203.038040,135.378510 
	C204.369766,130.538910 205.521149,125.864449 207.149292,121.362419 
	C207.533264,120.300705 209.510300,119.196930 210.776001,119.171211 
	C219.923294,118.985359 229.076126,119.071541 237.851639,119.071541 
	C235.862396,124.841728 233.885666,130.575638 231.824631,136.554062 
	C228.790741,136.554062 225.706223,136.554062 222.225311,136.554062 
	C223.041931,133.287231 223.826767,130.147568 224.615341,126.992920 
	C215.988785,125.514885 215.606415,125.410042 213.529770,132.983704 
	C211.816315,139.232803 207.241470,135.993301 203.428848,136.644104 
z"/>
<path fill="#D60C0C" opacity="1.000000" stroke="none" 
	d="
M159.975311,136.021210 
	C159.917328,136.405426 159.953049,136.353806 159.959747,136.323776 
	C157.013062,136.466354 154.030334,136.945053 151.120193,136.666229 
	C149.896271,136.548965 148.616806,134.986496 147.735153,133.803406 
	C146.459122,132.091080 145.521484,130.126587 144.186737,127.835938 
	C142.652603,131.026932 141.991165,135.069611 139.751114,136.349533 
	C137.261993,137.771774 133.333618,136.675110 129.572403,136.675110 
	C131.176498,131.364716 132.539810,126.260239 134.352859,121.320839 
	C134.740936,120.263550 136.739319,119.213516 138.029999,119.169861 
	C144.478333,118.951759 150.938034,119.070076 158.157867,119.070076 
	C156.531128,120.938210 155.300629,122.351295 153.799301,124.075424 
	C155.829239,127.840164 157.931259,131.738571 159.975311,136.021210 
z"/>
<path fill="#D70F0F" opacity="1.000000" stroke="none" 
	d="
M182.815094,85.197380 
	C189.090790,86.201874 194.919159,87.146507 200.747528,88.091148 
	C200.749588,88.653786 200.751648,89.216431 200.753708,89.779076 
	C199.157959,89.912758 197.554062,90.224243 195.967773,90.151543 
	C184.847672,89.641945 173.702377,89.377563 162.622040,88.393921 
	C152.498871,87.495255 142.743103,88.884460 133.058365,91.433105 
	C128.998276,92.501564 125.511894,94.331947 125.984200,100.586082 
	C122.687744,90.633774 123.304840,89.644394 132.026566,86.913414 
	C144.803329,82.912704 157.768021,82.340988 170.946777,84.125282 
	C174.730103,84.637497 178.559479,84.809525 182.815094,85.197380 
z"/>
<path fill="#E8E6E6" opacity="1.000000" stroke="none" 
	d="
M176.561417,52.950859 
	C175.856277,56.271904 175.142090,59.742275 173.599731,62.794117 
	C170.562134,68.804550 165.644257,72.009361 158.611389,71.304375 
	C155.631256,71.005638 152.632874,70.889153 149.272125,70.499641 
	C152.050171,69.868980 155.188416,69.172241 158.349838,69.043182 
	C164.314590,68.799683 166.157761,66.827072 165.491287,60.203278 
	C161.019730,60.203278 156.478943,60.203278 151.646301,60.203278 
	C156.883286,51.035339 165.884109,48.522415 176.561417,52.950859 
z"/>
<path fill="#E8E8E8" opacity="1.000000" stroke="none" 
	d="
M73.714638,127.176102 
	C72.401558,128.388580 71.010994,129.684662 69.467903,129.903061 
	C66.758362,130.286545 63.955429,130.010178 61.191612,130.010178 
	C61.182842,130.937637 61.174068,131.865082 61.165298,132.792542 
	C64.090668,132.862411 67.037491,132.747513 69.931976,133.083466 
	C71.290215,133.241119 72.547623,134.267502 73.850723,134.900208 
	C72.615326,135.603882 71.365631,136.943039 70.146683,136.915634 
	C52.579033,136.520447 56.569305,140.459503 55.967335,122.712234 
	C55.871170,119.877190 56.957081,118.840576 59.745789,118.965492 
	C63.236286,119.121826 66.755028,118.812477 70.228256,119.102798 
	C71.498734,119.209000 72.673820,120.456413 73.892426,121.183212 
	C72.589615,122.116142 71.379616,123.631638 69.964104,123.857140 
	C67.263634,124.287354 64.445992,123.981987 61.676994,123.981987 
	C61.641823,124.450531 61.606651,124.919075 61.571480,125.387619 
	C65.570480,125.849884 69.569473,126.312157 73.714638,127.176102 
z"/>
<path fill="#D60E0E" opacity="1.000000" stroke="none" 
	d="
M205.849548,115.939697 
	C207.824051,110.512138 211.564560,108.466217 217.336990,109.118988 
	C222.095139,109.657059 226.975021,109.445114 231.777954,109.167534 
	C236.478561,108.895889 238.978210,110.883858 239.794342,116.172287 
	C228.490204,116.172287 217.301224,116.172287 205.849548,115.939697 
z"/>
<path fill="#D50E0E" opacity="1.000000" stroke="none" 
	d="
M254.031921,116.282135 
	C249.764572,116.282066 245.988861,116.282066 242.047440,116.282066 
	C244.221237,110.907692 247.446579,108.589958 253.157257,109.097961 
	C259.571930,109.668602 266.076477,109.229172 272.562042,109.229172 
	C271.844910,116.282700 271.844910,116.282616 264.979675,116.282227 
	C261.494324,116.282028 258.008942,116.282204 254.031921,116.282135 
z"/>
<path fill="#D60D0D" opacity="1.000000" stroke="none" 
	d="
M261.135925,119.225342 
	C260.056366,124.427223 258.740234,129.555176 256.983795,134.527588 
	C256.611053,135.582886 254.705643,136.489258 253.375885,136.723465 
	C251.303116,137.088531 249.118759,136.820068 246.309784,136.820068 
	C248.194778,130.731216 249.932770,125.117218 251.796844,119.095940 
	C254.869675,119.095940 257.805969,119.095940 261.135925,119.225342 
z"/>
<path fill="#EAEAEA" opacity="1.000000" stroke="none" 
	d="
M38.309380,123.977997 
	C36.960140,122.841324 36.041290,121.719696 35.122444,120.598068 
	C36.352859,120.065384 37.563488,119.135925 38.817348,119.073387 
	C42.797722,118.874893 46.808231,118.809067 50.777058,119.100700 
	C52.210468,119.206032 53.558861,120.468407 54.946049,121.202789 
	C53.592155,122.138847 52.278812,123.143982 50.863239,123.974968 
	C50.340523,124.281815 49.577084,124.178596 47.988708,124.382256 
	C47.988708,127.395142 48.216518,130.484940 47.877445,133.511200 
	C47.740337,134.734924 46.365211,135.819946 45.553467,136.968079 
	C44.703156,135.861755 43.414227,134.863525 43.108570,133.623001 
	C42.683537,131.897980 42.837704,129.974991 43.026089,128.166122 
	C43.372181,124.842941 41.960953,123.543343 38.309380,123.977997 
z"/>
<path fill="#D70505" opacity="1.000000" stroke="none" 
	d="
M189.926025,116.229118 
	C185.707443,116.228210 181.971970,116.228210 177.985535,116.228210 
	C181.353867,109.930183 189.359665,106.415863 194.385071,109.302788 
	C196.011841,110.237305 196.349655,113.415581 197.562607,116.230026 
	C194.643448,116.230026 192.526276,116.230026 189.926025,116.229118 
z"/>
<path fill="#D70000" opacity="1.000000" stroke="none" 
	d="
M160.376221,116.222107 
	C156.720291,116.247955 153.493774,116.247955 149.898834,116.247955 
	C155.508041,108.787697 155.508041,108.787697 168.896255,109.117638 
	C165.687515,111.925026 163.246582,114.060638 160.376221,116.222107 
z"/>
<path fill="#D70606" opacity="1.000000" stroke="none" 
	d="
M139.603989,116.271744 
	C138.247482,116.219543 137.273605,116.167236 135.993103,116.098465 
	C136.758041,113.666519 137.442429,111.490654 138.171036,109.174179 
	C141.703873,109.174179 145.146988,109.174179 148.594131,109.174179 
	C148.431427,116.271820 148.431427,116.271820 139.603989,116.271744 
z"/>
</svg>